<svg id="Layer_1" data-name="Layer 1" xmlns="http://www.w3.org/2000/svg" viewBox="0 0 426.4 82.56"><defs><style>.cls-1{fill:#fff;}</style></defs><title>facebook2</title><path class="cls-1" d="M76.16,36.78c-5,0-6.47,2.23-6.47,7.14v8.14H83.08L81.74,65.23h-12v40H53.62V65.23H42.8V52.06H53.62V44.14c0-13.27,5.36-20.3,20.31-20.3a76.66,76.66,0,0,1,9.37.55V36.78" transform="translate(-42.8 -23.84)"/><path class="cls-1" d="M84.19,77c0-14.84,7-26,21.76-26,8,0,12.94,4.13,15.28,9.26V52.06h15.4v53.11h-15.4v-8c-2.23,5.13-7.25,9.15-15.28,9.15-14.73,0-21.76-11.16-21.76-26m16.07.22c0,7.93,2.9,13.17,10.38,13.17,6.58,0,9.93-4.8,9.93-12.38V75.94c0-7.59-3.35-12.39-9.93-12.39-7.48,0-10.38,5.25-10.38,13.17Z" transform="translate(-42.8 -23.84)"/><path class="cls-1" d="M170.1,51c6.24,0,12.16,1.33,15.39,3.57L181.92,65.9a25.18,25.18,0,0,0-10.71-2.46c-8.7,0-12.49,5-12.49,13.62v3.12c0,8.59,3.79,13.61,12.49,13.61a25.18,25.18,0,0,0,10.71-2.46l3.57,11.39c-3.23,2.23-9.15,3.57-15.39,3.57-18.85,0-27.45-10.16-27.45-26.45V77.39c0-16.29,8.6-26.44,27.45-26.44" transform="translate(-42.8 -23.84)"/><path class="cls-1" d="M187.61,80.63V75.94c0-15.06,8.59-25,26.11-25,16.51,0,23.76,10,23.76,24.77V84.2h-33.8c.33,7.25,3.57,10.48,12.5,10.48a45.62,45.62,0,0,0,17.07-3.23l2.9,11c-4.24,2.24-13,3.91-20.65,3.91-20.3,0-27.89-10.15-27.89-25.77m16.07-6.92h19.41V72.37c0-5.8-2.34-10.38-9.37-10.38-7.25,0-10,4.58-10,11.72" transform="translate(-42.8 -23.84)"/><path class="cls-1" d="M297.06,80.29c0,14.84-7.14,26-21.86,26-8,0-13.62-4-15.85-9.15v8H244.18V25.39l16.06-1.45V59.42c2.35-4.68,7.48-8.47,15-8.47,14.72,0,21.86,11.15,21.86,26M281,76.61c0-7.48-2.91-13.06-10.6-13.06-6.59,0-10.16,4.69-10.16,12.27V81.4c0,7.59,3.57,12.28,10.16,12.28,7.69,0,10.6-5.58,10.6-13.06Z" transform="translate(-42.8 -23.84)"/><path class="cls-1" d="M302.41,80V77.28C302.41,62,311.11,51,328.86,51S355.3,62,355.3,77.28V80c0,15.29-8.71,26.34-26.44,26.34S302.41,95.24,302.41,80m36.82-3.79c0-7-2.9-12.61-10.37-12.61s-10.38,5.58-10.38,12.61v4.91c0,7,2.9,12.61,10.38,12.61s10.37-5.58,10.37-12.61Z" transform="translate(-42.8 -23.84)"/><path class="cls-1" d="M360.65,80V77.28C360.65,62,369.35,51,387.09,51s26.45,11,26.45,26.33V80c0,15.29-8.71,26.34-26.45,26.34S360.65,95.24,360.65,80m36.82-3.79c0-7-2.91-12.61-10.38-12.61s-10.37,5.58-10.37,12.61v4.91c0,7,2.89,12.61,10.37,12.61s10.38-5.58,10.38-12.61Z" transform="translate(-42.8 -23.84)"/><polyline class="cls-1" points="392.82 53.55 408.66 28.22 425.73 28.22 409.11 54.44 426.4 81.33 409.33 81.33 392.82 55.34 392.82 81.33 376.75 81.33 376.75 1.56 392.82 0.1"/></svg>