<?xml version="1.0" standalone="no"?>
<!DOCTYPE svg PUBLIC "-//W3C//DTD SVG 20010904//EN"
 "http://www.w3.org/TR/2001/REC-SVG-20010904/DTD/svg10.dtd">
<svg version="1.0" xmlns="http://www.w3.org/2000/svg"
 width="300.000000pt" height="300.000000pt" viewBox="0 0 300.000000 300.000000"
 preserveAspectRatio="xMidYMid meet">
<metadata>
Created by potrace 1.11, written by Peter Selinger 2001-2013
</metadata>
<g transform="translate(0.000000,300.000000) scale(0.100000,-0.100000)"
fill="#000000" stroke="none">
<path d="M215 2952 c-108 -38 -175 -124 -183 -234 -6 -80 18 -144 104 -269
117 -173 186 -339 228 -553 33 -162 40 -235 39 -406 -1 -194 -4 -230 -49 -468
-9 -45 -56 -185 -89 -261 -35 -83 -108 -208 -161 -278 -97 -128 -96 -292 3
-388 57 -55 98 -70 188 -69 92 0 111 8 256 107 173 117 346 186 579 231 176
35 472 40 665 12 251 -36 478 -122 656 -247 127 -89 160 -103 254 -103 95 -1
143 20 198 85 45 51 66 111 62 175 -5 89 -18 121 -100 239 -139 199 -230 453
-262 730 -10 88 -10 390 0 470 38 299 119 524 264 733 80 115 103 175 98 259
-5 77 -31 129 -92 181 -55 48 -120 67 -197 59 -66 -7 -121 -33 -224 -105 -45
-32 -120 -77 -165 -99 -78 -39 -264 -107 -323 -117 -15 -3 -50 -10 -78 -15
-131 -26 -226 -35 -381 -35 -196 0 -318 14 -501 57 -59 14 -212 71 -276 102
-97 47 -122 62 -198 116 -103 73 -144 91 -224 95 -39 2 -80 0 -91 -4z"/>
</g>
</svg>
