<?xml version="1.0" standalone="no"?>
<!DOCTYPE svg PUBLIC "-//W3C//DTD SVG 20010904//EN"
 "http://www.w3.org/TR/2001/REC-SVG-20010904/DTD/svg10.dtd">
<svg version="1.0" xmlns="http://www.w3.org/2000/svg"
 width="300.000000pt" height="300.000000pt" viewBox="0 0 300.000000 300.000000"
 preserveAspectRatio="xMidYMid meet">
<metadata>
Created by potrace 1.11, written by Peter Selinger 2001-2013
</metadata>
<g transform="translate(0.000000,300.000000) scale(0.100000,-0.100000)"
fill="#000000" stroke="none">
<path d="M1468 2304 c-2 -2 -19 -6 -38 -9 -19 -3 -40 -11 -47 -17 -7 -5 -32
-11 -55 -13 -24 -1 -52 -5 -63 -9 -11 -5 -32 -12 -47 -18 -16 -6 -28 -15 -28
-20 0 -5 -4 -7 -9 -4 -4 3 -16 -3 -26 -14 -10 -11 -33 -24 -51 -30 -19 -7 -34
-16 -34 -21 0 -5 -4 -9 -10 -9 -13 0 -59 -48 -52 -54 3 -3 1 -6 -5 -6 -14 0
-84 -103 -112 -165 -34 -74 -41 -94 -47 -138 -2 -23 -7 -43 -9 -46 -3 -2 0
-10 6 -18 7 -7 7 -13 2 -13 -10 0 -9 -28 2 -110 15 -105 92 -265 163 -336 12
-13 22 -28 22 -34 0 -6 5 -8 10 -5 6 3 10 0 10 -7 0 -8 14 -29 30 -48 88 -100
154 -171 238 -257 50 -53 92 -99 92 -102 0 -9 112 -16 167 -12 20 2 318 312
371 386 14 19 29 35 34 35 5 0 7 4 3 10 -3 5 3 18 15 30 11 11 17 20 14 20 -4
0 8 14 24 32 17 17 29 35 26 40 -3 4 0 8 5 8 10 0 66 108 87 165 11 29 11 315
1 315 -5 0 -7 6 -4 14 3 8 3 17 -1 21 -4 4 -8 10 -8 13 -5 24 -17 52 -23 52
-4 0 -7 9 -8 20 -1 11 -8 27 -15 34 -7 8 -40 48 -73 89 -59 73 -72 84 -127
107 -16 7 -28 15 -28 20 0 4 -8 11 -17 14 -10 4 -34 15 -53 25 -19 11 -38 17
-42 14 -5 -2 -8 -1 -8 4 0 4 -24 9 -53 11 -28 1 -67 10 -86 18 -29 14 -135 27
-143 18z"/>
<path d="M1446 696 c2 -11 8 -24 14 -30 6 -6 6 -14 -1 -23 -9 -10 -7 -13 5
-13 10 0 14 -4 11 -10 -9 -14 8 -13 23 2 9 9 12 9 12 -2 0 -10 3 -11 11 -3 6
6 18 9 25 6 10 -4 12 0 8 11 -3 9 -2 16 4 16 6 0 8 9 5 20 -3 12 0 20 7 20 6
0 10 6 8 12 -3 8 -28 13 -70 13 -61 1 -66 -1 -62 -19z"/>
<path d="M1655 696 c-26 -24 -26 -25 -8 -45 21 -23 59 -24 69 -1 11 25 13 40
4 35 -5 -3 -15 4 -23 15 l-15 21 -27 -25z"/>
</g>
</svg>
